# xmcd
#
# Track frame offsets: 
#        150
#        16572
#        29722
#        42077
#        52135
#        61915
#        75002
#        85610
#        98597
#        109805
#
# Disc length: 1620 seconds
#
# Revision: 0
# Processed by: cddbd v1.5.2PL0 Copyright (c) Steve Scherf et al.
# Submitted via: ExactAudioCopy v0.95a5
#
DISCID=6706520a
DTITLE=David Allan Coe - Truck Drivin' Songs
DYEAR=1997
DGENRE=Country
TTITLE0=Drivin' My Life Away
TTITLE1=Roll Truck Roll
TTITLE2=Endless Black Ribbon
TTITLE3=Truck Driver's Queen
TTITLE4=Truck Driving Man
TTITLE5=How Fast Them Trucks Can Go
TTITLE6=Six Days On The Road
TTITLE7=California Turn-Arounds
TTITLE8=Give Me Forty Acres
TTITLE9=18 Wheels Hummin' Home Sweet Home
EXTD=
EXTT0=
EXTT1=
EXTT2=
EXTT3=
EXTT4=
EXTT5=
EXTT6=
EXTT7=
EXTT8=
EXTT9=
PLAYORDER=
